<svg xmlns="http://www.w3.org/2000/svg" xmlns:xlink="http://www.w3.org/1999/xlink" width="200" zoomAndPan="magnify" viewBox="0 0 150 74.999997" height="100" preserveAspectRatio="xMidYMid meet" version="1.0"><defs><g/><clipPath id="1e2274c6c6"><path d="M 11.671875 25 L 136 25 L 136 57.75 L 11.671875 57.75 Z M 11.671875 25 " clip-rule="nonzero"/></clipPath></defs><path fill="#ffbd59" d="M 67.085938 7.675781 C 67.695312 7.675781 68.265625 7.328125 68.515625 6.769531 C 69.414062 4.742188 71.441406 3.328125 73.800781 3.332031 C 76.828125 3.339844 79.390625 5.765625 79.554688 8.789062 C 79.734375 12.113281 77.078125 14.878906 73.789062 14.878906 C 72.871094 14.878906 72.003906 14.664062 71.234375 14.28125 C 71.023438 14.175781 70.785156 14.128906 70.546875 14.128906 C 68.925781 14.128906 68.390625 16.328125 69.84375 17.050781 C 71.03125 17.644531 72.371094 17.980469 73.789062 17.980469 C 78.890625 17.980469 83.003906 13.648438 82.640625 8.46875 C 82.332031 4.078125 78.761719 0.53125 74.367188 0.253906 C 70.5 0.00390625 67.117188 2.25 65.667969 5.53125 C 65.222656 6.542969 65.980469 7.675781 67.085938 7.675781 " fill-opacity="1" fill-rule="nonzero"/><g clip-path="url(#1e2274c6c6)"><path fill="#ffbd59" d="M 129.464844 54.433594 L 135.851562 54.433594 L 135.851562 41.726562 L 78.449219 25.910156 L 69.125 25.910156 L 11.726562 41.726562 L 11.726562 54.433594 L 18.113281 54.433594 C 18.359375 54.433594 18.585938 54.601562 18.625 54.84375 C 18.675781 55.152344 18.4375 55.417969 18.140625 55.417969 L 12.746094 55.417969 C 12.183594 55.417969 11.726562 55.875 11.726562 56.441406 C 11.726562 57.003906 12.183594 57.460938 12.746094 57.460938 L 19.386719 57.460938 C 20.734375 57.460938 21.914062 56.441406 22 55.09375 C 22.097656 53.617188 20.925781 52.390625 19.472656 52.390625 L 16.796875 52.390625 L 16.796875 45.589844 L 69.8125 30.984375 L 77.765625 30.984375 L 130.78125 45.589844 L 130.78125 52.390625 L 128.191406 52.390625 C 126.839844 52.390625 125.664062 53.410156 125.578125 54.757812 C 125.480469 56.234375 126.648438 57.460938 128.105469 57.460938 L 134.832031 57.460938 C 135.394531 57.460938 135.851562 57.003906 135.851562 56.441406 C 135.851562 55.875 135.394531 55.417969 134.832031 55.417969 L 129.4375 55.417969 C 129.140625 55.417969 128.902344 55.152344 128.949219 54.84375 C 128.992188 54.601562 129.21875 54.433594 129.464844 54.433594 " fill-opacity="1" fill-rule="nonzero"/></g><path fill="#ffbd59" d="M 69.375 24.035156 L 78.203125 24.035156 L 78.203125 18.964844 L 69.375 18.964844 L 69.375 24.035156 " fill-opacity="1" fill-rule="nonzero"/><g fill="#ffffff" fill-opacity="1"><g transform="translate(24.052228, 57.239896)"><g><path d="M 7.3125 0.390625 C 5.09375 0.390625 3.410156 0.101562 2.265625 -0.46875 C 1.128906 -1.050781 0.5625 -2.035156 0.5625 -3.421875 C 0.5625 -3.878906 0.617188 -4.367188 0.734375 -4.890625 C 0.847656 -5.410156 0.96875 -5.898438 1.09375 -6.359375 L 2.5 -6 C 2.425781 -5.726562 2.34375 -5.378906 2.25 -4.953125 C 2.15625 -4.523438 2.109375 -4.15625 2.109375 -3.84375 C 2.109375 -3.195312 2.269531 -2.675781 2.59375 -2.28125 C 2.925781 -1.882812 3.503906 -1.59375 4.328125 -1.40625 C 5.160156 -1.226562 6.320312 -1.140625 7.8125 -1.140625 C 8.570312 -1.140625 9.375 -1.1875 10.21875 -1.28125 C 11.070312 -1.375 11.921875 -1.539062 12.765625 -1.78125 C 13.609375 -2.03125 14.410156 -2.363281 15.171875 -2.78125 C 15.941406 -3.207031 16.613281 -3.75 17.1875 -4.40625 L 18.375 -3.71875 C 18.257812 -3.425781 18.179688 -3.195312 18.140625 -3.03125 C 18.109375 -2.863281 18.09375 -2.710938 18.09375 -2.578125 C 18.09375 -2.390625 18.160156 -2.207031 18.296875 -2.03125 C 18.429688 -1.851562 18.6875 -1.707031 19.0625 -1.59375 C 19.4375 -1.488281 19.984375 -1.4375 20.703125 -1.4375 C 20.960938 -1.4375 21.148438 -1.363281 21.265625 -1.21875 C 21.390625 -1.082031 21.453125 -0.914062 21.453125 -0.71875 C 21.453125 -0.507812 21.363281 -0.320312 21.1875 -0.15625 C 21.007812 0.0078125 20.785156 0.09375 20.515625 0.09375 C 19.410156 0.09375 18.503906 -0.0664062 17.796875 -0.390625 C 17.085938 -0.710938 16.726562 -1.242188 16.71875 -1.984375 C 15.675781 -1.179688 14.328125 -0.582031 12.671875 -0.1875 C 11.023438 0.195312 9.238281 0.390625 7.3125 0.390625 Z M 9.21875 -8.046875 C 8.988281 -8.046875 8.71875 -8.054688 8.40625 -8.078125 C 8.101562 -8.097656 7.8125 -8.117188 7.53125 -8.140625 C 7.257812 -8.171875 7.054688 -8.191406 6.921875 -8.203125 L 6.953125 -9.296875 C 7.035156 -9.273438 7.117188 -9.257812 7.203125 -9.25 C 7.285156 -9.25 7.378906 -9.242188 7.484375 -9.234375 C 7.609375 -9.460938 7.742188 -9.675781 7.890625 -9.875 L 7.796875 -12.90625 L 8.84375 -12.90625 L 8.9375 -10.921875 C 9.15625 -11.085938 9.382812 -11.21875 9.625 -11.3125 C 9.875 -11.40625 10.125 -11.453125 10.375 -11.453125 C 10.832031 -11.453125 11.203125 -11.304688 11.484375 -11.015625 C 11.765625 -10.734375 11.90625 -10.378906 11.90625 -9.953125 C 11.90625 -9.703125 11.832031 -9.425781 11.6875 -9.125 C 11.550781 -8.832031 11.285156 -8.578125 10.890625 -8.359375 C 10.503906 -8.148438 9.945312 -8.046875 9.21875 -8.046875 Z M 10.21875 -10.34375 C 10 -10.34375 9.78125 -10.269531 9.5625 -10.125 C 9.351562 -9.988281 9.15625 -9.828125 8.96875 -9.640625 C 8.789062 -9.453125 8.65625 -9.289062 8.5625 -9.15625 C 8.757812 -9.144531 8.929688 -9.140625 9.078125 -9.140625 C 9.691406 -9.140625 10.132812 -9.203125 10.40625 -9.328125 C 10.6875 -9.460938 10.828125 -9.640625 10.828125 -9.859375 C 10.828125 -10.015625 10.769531 -10.132812 10.65625 -10.21875 C 10.539062 -10.300781 10.394531 -10.34375 10.21875 -10.34375 Z M 10.21875 -10.34375 "/></g></g></g><g fill="#ffffff" fill-opacity="1"><g transform="translate(44.553453, 57.239896)"><g><path d="M 0 0.09375 L 0.1875 -1.4375 C 0.8125 -1.4375 1.296875 -1.484375 1.640625 -1.578125 C 1.992188 -1.671875 2.257812 -1.851562 2.4375 -2.125 C 2.625 -2.394531 2.773438 -2.785156 2.890625 -3.296875 C 3.003906 -3.816406 3.140625 -4.488281 3.296875 -5.3125 L 4.765625 -5.03125 C 4.691406 -4.6875 4.609375 -4.296875 4.515625 -3.859375 C 4.421875 -3.421875 4.375 -3.054688 4.375 -2.765625 C 4.375 -2.578125 4.382812 -2.398438 4.40625 -2.234375 C 4.4375 -2.066406 4.53125 -1.925781 4.6875 -1.8125 C 4.851562 -1.707031 5.128906 -1.617188 5.515625 -1.546875 C 5.898438 -1.472656 6.457031 -1.4375 7.1875 -1.4375 C 7.445312 -1.4375 7.632812 -1.363281 7.75 -1.21875 C 7.875 -1.082031 7.9375 -0.914062 7.9375 -0.71875 C 7.9375 -0.507812 7.847656 -0.320312 7.671875 -0.15625 C 7.492188 0.0078125 7.269531 0.09375 7 0.09375 C 6.1875 0.09375 5.550781 0.046875 5.09375 -0.046875 C 4.632812 -0.140625 4.296875 -0.273438 4.078125 -0.453125 C 3.859375 -0.640625 3.703125 -0.867188 3.609375 -1.140625 C 3.242188 -0.628906 2.796875 -0.296875 2.265625 -0.140625 C 1.734375 0.015625 0.976562 0.09375 0 0.09375 Z M 4.734375 3.640625 C 4.472656 3.640625 4.25 3.546875 4.0625 3.359375 C 3.882812 3.179688 3.796875 2.96875 3.796875 2.71875 C 3.796875 2.46875 3.882812 2.25 4.0625 2.0625 C 4.25 1.875 4.472656 1.78125 4.734375 1.78125 C 4.984375 1.78125 5.195312 1.875 5.375 2.0625 C 5.5625 2.25 5.65625 2.46875 5.65625 2.71875 C 5.65625 2.96875 5.5625 3.179688 5.375 3.359375 C 5.195312 3.546875 4.984375 3.640625 4.734375 3.640625 Z M 2.15625 3.640625 C 1.894531 3.640625 1.671875 3.546875 1.484375 3.359375 C 1.304688 3.179688 1.21875 2.96875 1.21875 2.71875 C 1.21875 2.46875 1.304688 2.25 1.484375 2.0625 C 1.671875 1.875 1.894531 1.78125 2.15625 1.78125 C 2.40625 1.78125 2.617188 1.875 2.796875 2.0625 C 2.984375 2.25 3.078125 2.46875 3.078125 2.71875 C 3.078125 2.96875 2.984375 3.179688 2.796875 3.359375 C 2.617188 3.546875 2.40625 3.640625 2.15625 3.640625 Z M 2.15625 3.640625 "/></g></g></g><g fill="#ffffff" fill-opacity="1"><g transform="translate(51.549757, 57.239896)"><g><path d="M 0 0.09375 L 0.1875 -1.4375 L 1.953125 -1.4375 C 2.679688 -1.4375 3.265625 -1.476562 3.703125 -1.5625 C 4.140625 -1.644531 4.457031 -1.75 4.65625 -1.875 C 4.863281 -2.007812 5 -2.15625 5.0625 -2.3125 C 5.132812 -2.46875 5.171875 -2.628906 5.171875 -2.796875 C 5.171875 -3.085938 5.0625 -3.441406 4.84375 -3.859375 C 4.625 -4.285156 4.179688 -4.835938 3.515625 -5.515625 C 3.046875 -5.992188 2.578125 -6.410156 2.109375 -6.765625 C 1.648438 -7.128906 1.269531 -7.4375 0.96875 -7.6875 C 0.675781 -7.9375 0.53125 -8.117188 0.53125 -8.234375 C 0.53125 -8.523438 0.5625 -8.796875 0.625 -9.046875 C 0.6875 -9.296875 0.785156 -9.488281 0.921875 -9.625 C 1.421875 -10.164062 2.203125 -10.703125 3.265625 -11.234375 C 4.335938 -11.773438 5.675781 -12.453125 7.28125 -13.265625 L 7.921875 -11.875 C 6.785156 -11.320312 5.851562 -10.867188 5.125 -10.515625 C 4.40625 -10.160156 3.8125 -9.847656 3.34375 -9.578125 C 2.875 -9.304688 2.441406 -9.035156 2.046875 -8.765625 C 3.503906 -7.578125 4.625 -6.507812 5.40625 -5.5625 C 6.195312 -4.613281 6.59375 -3.660156 6.59375 -2.703125 C 6.59375 -2.429688 6.539062 -2.128906 6.4375 -1.796875 C 6.332031 -1.472656 6.117188 -1.164062 5.796875 -0.875 C 5.472656 -0.59375 4.984375 -0.359375 4.328125 -0.171875 C 3.679688 0.00390625 2.804688 0.09375 1.703125 0.09375 Z M 0 0.09375 "/></g></g></g><g fill="#ffffff" fill-opacity="1"><g transform="translate(59.277579, 57.239896)"><g><path d="M 0.078125 4.3125 L -0.46875 2.890625 C 0.789062 2.492188 1.757812 2.019531 2.4375 1.46875 C 3.125 0.914062 3.59375 0.335938 3.84375 -0.265625 C 4.101562 -0.878906 4.234375 -1.460938 4.234375 -2.015625 C 4.234375 -2.359375 4.195312 -2.691406 4.125 -3.015625 C 4.050781 -3.347656 3.921875 -3.71875 3.734375 -4.125 C 3.546875 -4.539062 3.285156 -5.054688 2.953125 -5.671875 L 4.3125 -6.359375 C 4.789062 -5.546875 5.132812 -4.773438 5.34375 -4.046875 C 5.550781 -3.328125 5.65625 -2.691406 5.65625 -2.140625 C 5.65625 -1.347656 5.523438 -0.632812 5.265625 0 C 5.003906 0.632812 4.664062 1.195312 4.25 1.6875 C 3.832031 2.1875 3.375 2.609375 2.875 2.953125 C 2.382812 3.304688 1.890625 3.597656 1.390625 3.828125 C 0.898438 4.054688 0.460938 4.21875 0.078125 4.3125 Z M 0.078125 4.3125 "/></g></g></g><g fill="#ffffff" fill-opacity="1"><g transform="translate(66.161341, 57.239896)"><g><path d="M 5.453125 0.09375 C 4.441406 0.09375 3.671875 -0.015625 3.140625 -0.234375 C 2.617188 -0.460938 2.257812 -0.816406 2.0625 -1.296875 C 1.863281 -1.773438 1.75 -2.390625 1.71875 -3.140625 L 1.34375 -13.40625 L 2.890625 -13.40625 L 3.265625 -3.734375 C 3.285156 -3.117188 3.34375 -2.644531 3.4375 -2.3125 C 3.53125 -1.976562 3.742188 -1.75 4.078125 -1.625 C 4.410156 -1.5 4.9375 -1.4375 5.65625 -1.4375 C 5.914062 -1.4375 6.101562 -1.363281 6.21875 -1.21875 C 6.34375 -1.082031 6.40625 -0.914062 6.40625 -0.71875 C 6.40625 -0.507812 6.316406 -0.320312 6.140625 -0.15625 C 5.960938 0.0078125 5.734375 0.09375 5.453125 0.09375 Z M 5.453125 0.09375 "/></g></g></g><g fill="#ffffff" fill-opacity="1"><g transform="translate(71.619582, 57.239896)"><g><path d="M 0 0.09375 L 0.1875 -1.4375 C 0.539062 -1.4375 0.832031 -1.507812 1.0625 -1.65625 C 1.300781 -1.8125 1.535156 -2.0625 1.765625 -2.40625 C 1.992188 -2.75 2.238281 -3.222656 2.5 -3.828125 C 2.863281 -4.628906 3.222656 -5.234375 3.578125 -5.640625 C 3.929688 -6.054688 4.285156 -6.335938 4.640625 -6.484375 C 4.992188 -6.640625 5.347656 -6.71875 5.703125 -6.71875 C 6.128906 -6.71875 6.523438 -6.609375 6.890625 -6.390625 C 7.253906 -6.171875 7.570312 -5.878906 7.84375 -5.515625 C 8.113281 -5.148438 8.328125 -4.75 8.484375 -4.3125 C 8.640625 -3.882812 8.71875 -3.460938 8.71875 -3.046875 C 8.71875 -2.296875 8.585938 -1.695312 8.328125 -1.25 C 8.066406 -0.800781 7.734375 -0.476562 7.328125 -0.28125 C 6.921875 -0.09375 6.5 0 6.0625 0 C 5.695312 0 5.234375 -0.0625 4.671875 -0.1875 C 4.117188 -0.3125 3.425781 -0.632812 2.59375 -1.15625 C 2.1875 -0.582031 1.78125 -0.226562 1.375 -0.09375 C 0.976562 0.03125 0.519531 0.09375 0 0.09375 Z M 3.515625 -2.828125 C 3.429688 -2.671875 3.359375 -2.515625 3.296875 -2.359375 C 3.835938 -2.046875 4.328125 -1.828125 4.765625 -1.703125 C 5.210938 -1.585938 5.585938 -1.53125 5.890625 -1.53125 C 6.429688 -1.53125 6.8125 -1.648438 7.03125 -1.890625 C 7.257812 -2.128906 7.375 -2.441406 7.375 -2.828125 C 7.375 -3.191406 7.285156 -3.554688 7.109375 -3.921875 C 6.929688 -4.285156 6.707031 -4.582031 6.4375 -4.8125 C 6.175781 -5.050781 5.894531 -5.171875 5.59375 -5.171875 C 5.363281 -5.171875 5.140625 -5.109375 4.921875 -4.984375 C 4.710938 -4.859375 4.492188 -4.628906 4.265625 -4.296875 C 4.046875 -3.960938 3.796875 -3.472656 3.515625 -2.828125 Z M 3.515625 -2.828125 "/></g></g></g><g fill="#ffffff" fill-opacity="1"><g transform="translate(81.466921, 57.239896)"><g/></g></g><g fill="#ffffff" fill-opacity="1"><g transform="translate(86.275185, 57.239896)"><g><path d="M 1.4375 7.375 C 1.175781 6.414062 0.953125 5.472656 0.765625 4.546875 C 0.578125 3.628906 0.429688 2.8125 0.328125 2.09375 C 0.234375 1.375 0.1875 0.832031 0.1875 0.46875 C 0.1875 -0.457031 0.335938 -1.300781 0.640625 -2.0625 C 0.941406 -2.820312 1.328125 -3.492188 1.796875 -4.078125 C 2.273438 -4.660156 2.789062 -5.15625 3.34375 -5.5625 C 3.894531 -5.96875 4.425781 -6.273438 4.9375 -6.484375 C 5.457031 -6.691406 5.898438 -6.796875 6.265625 -6.796875 C 6.566406 -6.796875 6.835938 -6.722656 7.078125 -6.578125 C 7.328125 -6.441406 7.5625 -6.171875 7.78125 -5.765625 C 8 -5.367188 8.238281 -4.785156 8.5 -4.015625 C 8.738281 -3.285156 8.960938 -2.738281 9.171875 -2.375 C 9.390625 -2.019531 9.625 -1.773438 9.875 -1.640625 C 10.125 -1.503906 10.410156 -1.4375 10.734375 -1.4375 C 10.992188 -1.4375 11.179688 -1.363281 11.296875 -1.21875 C 11.421875 -1.082031 11.484375 -0.914062 11.484375 -0.71875 C 11.484375 -0.507812 11.394531 -0.320312 11.21875 -0.15625 C 11.039062 0.0078125 10.816406 0.09375 10.546875 0.09375 C 10.109375 0.09375 9.726562 0.0195312 9.40625 -0.125 C 9.09375 -0.269531 8.8125 -0.46875 8.5625 -0.71875 C 8.320312 -0.351562 8.03125 -0.0859375 7.6875 0.078125 C 7.351562 0.253906 6.992188 0.34375 6.609375 0.34375 C 6.140625 0.34375 5.648438 0.234375 5.140625 0.015625 C 4.640625 -0.203125 4.15625 -0.523438 3.6875 -0.953125 C 3.226562 -1.378906 2.832031 -1.894531 2.5 -2.5 C 2.1875 -2.019531 1.976562 -1.507812 1.875 -0.96875 C 1.769531 -0.425781 1.71875 0.0507812 1.71875 0.46875 C 1.71875 0.832031 1.753906 1.28125 1.828125 1.8125 C 1.910156 2.351562 2.007812 2.929688 2.125 3.546875 C 2.25 4.160156 2.378906 4.769531 2.515625 5.375 C 2.660156 5.976562 2.796875 6.523438 2.921875 7.015625 Z M 6.75 -1.203125 C 7.082031 -1.203125 7.328125 -1.300781 7.484375 -1.5 C 7.648438 -1.695312 7.671875 -1.992188 7.546875 -2.390625 C 7.253906 -3.296875 6.992188 -3.976562 6.765625 -4.4375 C 6.535156 -4.894531 6.28125 -5.125 6 -5.125 C 5.726562 -5.125 5.34375 -5 4.84375 -4.75 C 4.351562 -4.507812 3.910156 -4.160156 3.515625 -3.703125 C 3.785156 -3.140625 4.117188 -2.664062 4.515625 -2.28125 C 4.910156 -1.90625 5.300781 -1.628906 5.6875 -1.453125 C 6.082031 -1.285156 6.4375 -1.203125 6.75 -1.203125 Z M 6.75 -1.203125 "/></g></g></g><g fill="#ffffff" fill-opacity="1"><g transform="translate(96.816528, 57.239896)"><g><path d="M 0 0.09375 L 0.1875 -1.4375 L 1.125 -1.4375 C 1.320312 -1.757812 1.535156 -2.066406 1.765625 -2.359375 L 1.40625 -13.40625 L 2.921875 -13.40625 L 3.265625 -4.125 C 4.023438 -4.90625 4.859375 -5.566406 5.765625 -6.109375 C 6.671875 -6.648438 7.59375 -6.921875 8.53125 -6.921875 C 9.226562 -6.921875 9.820312 -6.78125 10.3125 -6.5 C 10.800781 -6.21875 11.179688 -5.835938 11.453125 -5.359375 C 11.722656 -4.890625 11.859375 -4.351562 11.859375 -3.75 C 11.859375 -3.164062 11.644531 -2.578125 11.21875 -1.984375 C 10.789062 -1.390625 10.0625 -0.921875 9.03125 -0.578125 C 8.226562 -0.316406 7.265625 -0.140625 6.140625 -0.046875 C 5.015625 0.046875 3.625 0.09375 1.96875 0.09375 Z M 8.421875 -5.390625 C 7.890625 -5.390625 7.347656 -5.253906 6.796875 -4.984375 C 6.253906 -4.722656 5.734375 -4.390625 5.234375 -3.984375 C 4.734375 -3.578125 4.273438 -3.144531 3.859375 -2.6875 C 3.453125 -2.238281 3.109375 -1.820312 2.828125 -1.4375 L 4.109375 -1.4375 C 6.285156 -1.4375 7.878906 -1.625 8.890625 -2 C 9.910156 -2.382812 10.421875 -2.972656 10.421875 -3.765625 C 10.421875 -3.984375 10.347656 -4.21875 10.203125 -4.46875 C 10.066406 -4.71875 9.851562 -4.929688 9.5625 -5.109375 C 9.269531 -5.296875 8.890625 -5.390625 8.421875 -5.390625 Z M 13.328125 0.09375 C 13.003906 0.09375 12.59375 0.0625 12.09375 0 C 11.601562 -0.0703125 11.101562 -0.195312 10.59375 -0.375 C 10.082031 -0.550781 9.65625 -0.796875 9.3125 -1.109375 L 10.84375 -1.875 C 11.28125 -1.695312 11.734375 -1.578125 12.203125 -1.515625 C 12.671875 -1.460938 13.109375 -1.4375 13.515625 -1.4375 C 13.773438 -1.4375 13.960938 -1.363281 14.078125 -1.21875 C 14.203125 -1.082031 14.265625 -0.914062 14.265625 -0.71875 C 14.265625 -0.507812 14.175781 -0.320312 14 -0.15625 C 13.820312 0.0078125 13.597656 0.09375 13.328125 0.09375 Z M 7.609375 -8.859375 C 7.347656 -8.859375 7.125 -8.945312 6.9375 -9.125 C 6.757812 -9.3125 6.671875 -9.53125 6.671875 -9.78125 C 6.671875 -10.03125 6.757812 -10.25 6.9375 -10.4375 C 7.125 -10.625 7.347656 -10.71875 7.609375 -10.71875 C 7.859375 -10.71875 8.070312 -10.625 8.25 -10.4375 C 8.4375 -10.25 8.53125 -10.03125 8.53125 -9.78125 C 8.53125 -9.53125 8.4375 -9.3125 8.25 -9.125 C 8.070312 -8.945312 7.859375 -8.859375 7.609375 -8.859375 Z M 7.609375 -8.859375 "/></g></g></g><g fill="#ffffff" fill-opacity="1"><g transform="translate(110.133886, 57.239896)"><g><path d="M 0 0.09375 L 0.1875 -1.4375 C 0.976562 -1.4375 1.585938 -1.441406 2.015625 -1.453125 C 2.453125 -1.472656 2.769531 -1.488281 2.96875 -1.5 C 3.164062 -1.519531 3.300781 -1.53125 3.375 -1.53125 C 3.15625 -1.65625 2.894531 -1.851562 2.59375 -2.125 C 2.289062 -2.394531 2.023438 -2.738281 1.796875 -3.15625 C 1.578125 -3.582031 1.46875 -4.082031 1.46875 -4.65625 C 1.46875 -5.351562 1.628906 -5.972656 1.953125 -6.515625 C 2.285156 -7.066406 2.742188 -7.488281 3.328125 -7.78125 C 3.910156 -8.082031 4.578125 -8.234375 5.328125 -8.234375 C 5.929688 -8.234375 6.550781 -8.132812 7.1875 -7.9375 L 6.875 -6.5 C 6.34375 -6.632812 5.828125 -6.703125 5.328125 -6.703125 C 4.640625 -6.703125 4.078125 -6.515625 3.640625 -6.140625 C 3.210938 -5.773438 3 -5.28125 3 -4.65625 C 3 -4.238281 3.101562 -3.867188 3.3125 -3.546875 C 3.53125 -3.234375 3.796875 -2.96875 4.109375 -2.75 C 4.429688 -2.53125 4.765625 -2.363281 5.109375 -2.25 C 5.453125 -2.132812 5.765625 -2.085938 6.046875 -2.109375 C 6.242188 -2.171875 6.425781 -2.226562 6.59375 -2.28125 C 6.757812 -2.332031 6.972656 -2.410156 7.234375 -2.515625 C 7.492188 -2.617188 7.863281 -2.78125 8.34375 -3 L 8.875 -1.625 C 8.039062 -1.289062 7.1875 -0.992188 6.3125 -0.734375 C 5.445312 -0.472656 4.503906 -0.269531 3.484375 -0.125 C 2.460938 0.0195312 1.300781 0.09375 0 0.09375 Z M 0 0.09375 "/></g></g></g><g fill="#ffffff" fill-opacity="1"><g transform="translate(119.56858, 57.239896)"><g><path d="M 1.71875 0 L 1.34375 -13.40625 L 2.875 -13.40625 L 3.25 0 Z M 1.71875 0 "/></g></g></g><g fill="#ffffff" fill-opacity="1"><g transform="translate(13.489702, 72.917475)"><g><path d="M 3.6875 -1.4375 L 1.375 -1.4375 L 0.859375 0 L 0.109375 0 L 2.203125 -5.515625 L 2.84375 -5.515625 L 4.953125 0 L 4.203125 0 Z M 1.59375 -2.03125 L 3.46875 -2.03125 L 2.53125 -4.609375 Z M 1.59375 -2.03125 "/></g></g></g><g fill="#ffffff" fill-opacity="1"><g transform="translate(21.64694, 72.917475)"><g><path d="M 3.0625 0 C 3.019531 -0.0820312 2.984375 -0.226562 2.953125 -0.4375 C 2.628906 -0.09375 2.242188 0.078125 1.796875 0.078125 C 1.390625 0.078125 1.054688 -0.0351562 0.796875 -0.265625 C 0.535156 -0.492188 0.40625 -0.785156 0.40625 -1.140625 C 0.40625 -1.566406 0.566406 -1.894531 0.890625 -2.125 C 1.222656 -2.363281 1.679688 -2.484375 2.265625 -2.484375 L 2.953125 -2.484375 L 2.953125 -2.796875 C 2.953125 -3.046875 2.878906 -3.242188 2.734375 -3.390625 C 2.585938 -3.535156 2.367188 -3.609375 2.078125 -3.609375 C 1.828125 -3.609375 1.617188 -3.546875 1.453125 -3.421875 C 1.285156 -3.296875 1.203125 -3.140625 1.203125 -2.953125 L 0.5 -2.953125 C 0.5 -3.160156 0.570312 -3.359375 0.71875 -3.546875 C 0.863281 -3.742188 1.054688 -3.894531 1.296875 -4 C 1.546875 -4.113281 1.820312 -4.171875 2.125 -4.171875 C 2.59375 -4.171875 2.960938 -4.050781 3.234375 -3.8125 C 3.503906 -3.582031 3.640625 -3.257812 3.640625 -2.84375 L 3.640625 -0.953125 C 3.640625 -0.578125 3.691406 -0.28125 3.796875 -0.0625 L 3.796875 0 Z M 1.890625 -0.53125 C 2.109375 -0.53125 2.316406 -0.585938 2.515625 -0.703125 C 2.710938 -0.816406 2.859375 -0.960938 2.953125 -1.140625 L 2.953125 -1.984375 L 2.40625 -1.984375 C 1.539062 -1.984375 1.109375 -1.734375 1.109375 -1.234375 C 1.109375 -1.015625 1.179688 -0.84375 1.328125 -0.71875 C 1.472656 -0.59375 1.660156 -0.53125 1.890625 -0.53125 Z M 1.890625 -0.53125 "/></g></g></g><g fill="#ffffff" fill-opacity="1"><g transform="translate(28.964268, 72.917475)"><g><path d="M 1.1875 -0.578125 L 3.578125 -0.578125 L 3.578125 0 L 0.328125 0 L 0.328125 -0.515625 L 2.59375 -3.515625 L 0.359375 -3.515625 L 0.359375 -4.09375 L 3.46875 -4.09375 L 3.46875 -3.59375 Z M 1.1875 -0.578125 "/></g></g></g><g fill="#ffffff" fill-opacity="1"><g transform="translate(35.907047, 72.917475)"><g><path d="M 3.0625 0 C 3.019531 -0.0820312 2.984375 -0.226562 2.953125 -0.4375 C 2.628906 -0.09375 2.242188 0.078125 1.796875 0.078125 C 1.390625 0.078125 1.054688 -0.0351562 0.796875 -0.265625 C 0.535156 -0.492188 0.40625 -0.785156 0.40625 -1.140625 C 0.40625 -1.566406 0.566406 -1.894531 0.890625 -2.125 C 1.222656 -2.363281 1.679688 -2.484375 2.265625 -2.484375 L 2.953125 -2.484375 L 2.953125 -2.796875 C 2.953125 -3.046875 2.878906 -3.242188 2.734375 -3.390625 C 2.585938 -3.535156 2.367188 -3.609375 2.078125 -3.609375 C 1.828125 -3.609375 1.617188 -3.546875 1.453125 -3.421875 C 1.285156 -3.296875 1.203125 -3.140625 1.203125 -2.953125 L 0.5 -2.953125 C 0.5 -3.160156 0.570312 -3.359375 0.71875 -3.546875 C 0.863281 -3.742188 1.054688 -3.894531 1.296875 -4 C 1.546875 -4.113281 1.820312 -4.171875 2.125 -4.171875 C 2.59375 -4.171875 2.960938 -4.050781 3.234375 -3.8125 C 3.503906 -3.582031 3.640625 -3.257812 3.640625 -2.84375 L 3.640625 -0.953125 C 3.640625 -0.578125 3.691406 -0.28125 3.796875 -0.0625 L 3.796875 0 Z M 1.890625 -0.53125 C 2.109375 -0.53125 2.316406 -0.585938 2.515625 -0.703125 C 2.710938 -0.816406 2.859375 -0.960938 2.953125 -1.140625 L 2.953125 -1.984375 L 2.40625 -1.984375 C 1.539062 -1.984375 1.109375 -1.734375 1.109375 -1.234375 C 1.109375 -1.015625 1.179688 -0.84375 1.328125 -0.71875 C 1.472656 -0.59375 1.660156 -0.53125 1.890625 -0.53125 Z M 1.890625 -0.53125 "/></g></g></g><g fill="#ffffff" fill-opacity="1"><g transform="translate(43.224375, 72.917475)"><g><path d="M 1.1875 -4.09375 L 1.203125 -3.640625 C 1.503906 -3.992188 1.910156 -4.171875 2.421875 -4.171875 C 2.992188 -4.171875 3.382812 -3.953125 3.59375 -3.515625 C 3.726562 -3.710938 3.90625 -3.867188 4.125 -3.984375 C 4.34375 -4.109375 4.597656 -4.171875 4.890625 -4.171875 C 5.796875 -4.171875 6.253906 -3.695312 6.265625 -2.75 L 6.265625 0 L 5.5625 0 L 5.5625 -2.703125 C 5.5625 -2.992188 5.492188 -3.210938 5.359375 -3.359375 C 5.234375 -3.503906 5.007812 -3.578125 4.6875 -3.578125 C 4.425781 -3.578125 4.207031 -3.5 4.03125 -3.34375 C 3.863281 -3.1875 3.769531 -2.976562 3.75 -2.71875 L 3.75 0 L 3.046875 0 L 3.046875 -2.6875 C 3.046875 -3.28125 2.753906 -3.578125 2.171875 -3.578125 C 1.710938 -3.578125 1.394531 -3.378906 1.21875 -2.984375 L 1.21875 0 L 0.53125 0 L 0.53125 -4.09375 Z M 1.1875 -4.09375 "/></g></g></g><g fill="#ffffff" fill-opacity="1"><g transform="translate(53.118183, 72.917475)"><g/></g></g><g fill="#ffffff" fill-opacity="1"><g transform="translate(58.139007, 72.917475)"><g><path d="M 4.6875 -1.75 C 4.625 -1.164062 4.410156 -0.710938 4.046875 -0.390625 C 3.679688 -0.078125 3.203125 0.078125 2.609375 0.078125 C 1.953125 0.078125 1.425781 -0.15625 1.03125 -0.625 C 0.644531 -1.09375 0.453125 -1.71875 0.453125 -2.5 L 0.453125 -3.03125 C 0.453125 -3.539062 0.539062 -3.988281 0.71875 -4.375 C 0.90625 -4.769531 1.164062 -5.066406 1.5 -5.265625 C 1.832031 -5.472656 2.222656 -5.578125 2.671875 -5.578125 C 3.253906 -5.578125 3.722656 -5.414062 4.078125 -5.09375 C 4.429688 -4.769531 4.632812 -4.316406 4.6875 -3.734375 L 3.96875 -3.734375 C 3.90625 -4.171875 3.765625 -4.488281 3.546875 -4.6875 C 3.335938 -4.882812 3.046875 -4.984375 2.671875 -4.984375 C 2.203125 -4.984375 1.835938 -4.8125 1.578125 -4.46875 C 1.316406 -4.125 1.1875 -3.640625 1.1875 -3.015625 L 1.1875 -2.46875 C 1.1875 -1.875 1.3125 -1.398438 1.5625 -1.046875 C 1.8125 -0.691406 2.160156 -0.515625 2.609375 -0.515625 C 3.003906 -0.515625 3.3125 -0.601562 3.53125 -0.78125 C 3.75 -0.96875 3.894531 -1.289062 3.96875 -1.75 Z M 4.6875 -1.75 "/></g></g></g><g fill="#ffffff" fill-opacity="1"><g transform="translate(66.284897, 72.917475)"><g><path d="M 1.296875 0 L 0.59375 0 L 0.59375 -5.8125 L 1.296875 -5.8125 Z M 1.296875 0 "/></g></g></g><g fill="#ffffff" fill-opacity="1"><g transform="translate(71.267886, 72.917475)"><g><path d="M 0.34375 -2.078125 C 0.34375 -2.484375 0.421875 -2.84375 0.578125 -3.15625 C 0.734375 -3.476562 0.953125 -3.726562 1.234375 -3.90625 C 1.515625 -4.082031 1.835938 -4.171875 2.203125 -4.171875 C 2.753906 -4.171875 3.203125 -3.976562 3.546875 -3.59375 C 3.898438 -3.207031 4.078125 -2.691406 4.078125 -2.046875 L 4.078125 -2 C 4.078125 -1.601562 4 -1.242188 3.84375 -0.921875 C 3.6875 -0.609375 3.46875 -0.363281 3.1875 -0.1875 C 2.90625 -0.0078125 2.578125 0.078125 2.203125 0.078125 C 1.648438 0.078125 1.203125 -0.113281 0.859375 -0.5 C 0.515625 -0.882812 0.34375 -1.394531 0.34375 -2.03125 Z M 1.046875 -2 C 1.046875 -1.550781 1.148438 -1.1875 1.359375 -0.90625 C 1.578125 -0.632812 1.859375 -0.5 2.203125 -0.5 C 2.566406 -0.5 2.851562 -0.632812 3.0625 -0.90625 C 3.269531 -1.1875 3.375 -1.578125 3.375 -2.078125 C 3.375 -2.535156 3.265625 -2.898438 3.046875 -3.171875 C 2.835938 -3.453125 2.554688 -3.59375 2.203125 -3.59375 C 1.859375 -3.59375 1.578125 -3.453125 1.359375 -3.171875 C 1.148438 -2.898438 1.046875 -2.507812 1.046875 -2 Z M 1.046875 -2 "/></g></g></g><g fill="#ffffff" fill-opacity="1"><g transform="translate(78.78952, 72.917475)"><g><path d="M 1.484375 -5.09375 L 1.484375 -4.09375 L 2.25 -4.09375 L 2.25 -3.546875 L 1.484375 -3.546875 L 1.484375 -1.015625 C 1.484375 -0.847656 1.515625 -0.722656 1.578125 -0.640625 C 1.648438 -0.554688 1.769531 -0.515625 1.9375 -0.515625 C 2.007812 -0.515625 2.117188 -0.53125 2.265625 -0.5625 L 2.265625 0 C 2.078125 0.0507812 1.894531 0.078125 1.71875 0.078125 C 1.40625 0.078125 1.171875 -0.015625 1.015625 -0.203125 C 0.859375 -0.390625 0.78125 -0.660156 0.78125 -1.015625 L 0.78125 -3.546875 L 0.03125 -3.546875 L 0.03125 -4.09375 L 0.78125 -4.09375 L 0.78125 -5.09375 Z M 1.484375 -5.09375 "/></g></g></g><g fill="#ffffff" fill-opacity="1"><g transform="translate(84.42325, 72.917475)"><g><path d="M 1.234375 -3.59375 C 1.546875 -3.976562 1.945312 -4.171875 2.4375 -4.171875 C 3.300781 -4.171875 3.738281 -3.679688 3.75 -2.703125 L 3.75 0 L 3.046875 0 L 3.046875 -2.703125 C 3.046875 -3.003906 2.976562 -3.222656 2.84375 -3.359375 C 2.71875 -3.503906 2.515625 -3.578125 2.234375 -3.578125 C 2.003906 -3.578125 1.800781 -3.515625 1.625 -3.390625 C 1.457031 -3.273438 1.328125 -3.117188 1.234375 -2.921875 L 1.234375 0 L 0.53125 0 L 0.53125 -5.8125 L 1.234375 -5.8125 Z M 1.234375 -3.59375 "/></g></g></g><g fill="#ffffff" fill-opacity="1"><g transform="translate(91.793544, 72.917475)"><g/></g></g><g fill="#ffffff" fill-opacity="1"><g transform="translate(96.814368, 72.917475)"><g><path d="M 1.578125 -5.515625 L 3.375 -1.015625 L 5.1875 -5.515625 L 6.125 -5.515625 L 6.125 0 L 5.390625 0 L 5.390625 -2.140625 L 5.46875 -4.46875 L 3.65625 0 L 3.09375 0 L 1.296875 -4.453125 L 1.359375 -2.140625 L 1.359375 0 L 0.640625 0 L 0.640625 -5.515625 Z M 1.578125 -5.515625 "/></g></g></g><g fill="#ffffff" fill-opacity="1"><g transform="translate(106.681689, 72.917475)"><g><path d="M 3.0625 0 C 3.019531 -0.0820312 2.984375 -0.226562 2.953125 -0.4375 C 2.628906 -0.09375 2.242188 0.078125 1.796875 0.078125 C 1.390625 0.078125 1.054688 -0.0351562 0.796875 -0.265625 C 0.535156 -0.492188 0.40625 -0.785156 0.40625 -1.140625 C 0.40625 -1.566406 0.566406 -1.894531 0.890625 -2.125 C 1.222656 -2.363281 1.679688 -2.484375 2.265625 -2.484375 L 2.953125 -2.484375 L 2.953125 -2.796875 C 2.953125 -3.046875 2.878906 -3.242188 2.734375 -3.390625 C 2.585938 -3.535156 2.367188 -3.609375 2.078125 -3.609375 C 1.828125 -3.609375 1.617188 -3.546875 1.453125 -3.421875 C 1.285156 -3.296875 1.203125 -3.140625 1.203125 -2.953125 L 0.5 -2.953125 C 0.5 -3.160156 0.570312 -3.359375 0.71875 -3.546875 C 0.863281 -3.742188 1.054688 -3.894531 1.296875 -4 C 1.546875 -4.113281 1.820312 -4.171875 2.125 -4.171875 C 2.59375 -4.171875 2.960938 -4.050781 3.234375 -3.8125 C 3.503906 -3.582031 3.640625 -3.257812 3.640625 -2.84375 L 3.640625 -0.953125 C 3.640625 -0.578125 3.691406 -0.28125 3.796875 -0.0625 L 3.796875 0 Z M 1.890625 -0.53125 C 2.109375 -0.53125 2.316406 -0.585938 2.515625 -0.703125 C 2.710938 -0.816406 2.859375 -0.960938 2.953125 -1.140625 L 2.953125 -1.984375 L 2.40625 -1.984375 C 1.539062 -1.984375 1.109375 -1.734375 1.109375 -1.234375 C 1.109375 -1.015625 1.179688 -0.84375 1.328125 -0.71875 C 1.472656 -0.59375 1.660156 -0.53125 1.890625 -0.53125 Z M 1.890625 -0.53125 "/></g></g></g><g fill="#ffffff" fill-opacity="1"><g transform="translate(113.999017, 72.917475)"><g><path d="M 2.515625 -3.46875 C 2.398438 -3.488281 2.285156 -3.5 2.171875 -3.5 C 1.703125 -3.5 1.390625 -3.300781 1.234375 -2.90625 L 1.234375 0 L 0.53125 0 L 0.53125 -4.09375 L 1.21875 -4.09375 L 1.21875 -3.625 C 1.445312 -3.988281 1.773438 -4.171875 2.203125 -4.171875 C 2.335938 -4.171875 2.441406 -4.15625 2.515625 -4.125 Z M 2.515625 -3.46875 "/></g></g></g><g fill="#ffffff" fill-opacity="1"><g transform="translate(119.723548, 72.917475)"><g><path d="M 1.671875 -1.890625 L 1.234375 -1.4375 L 1.234375 0 L 0.53125 0 L 0.53125 -5.8125 L 1.234375 -5.8125 L 1.234375 -2.296875 L 1.609375 -2.75 L 2.890625 -4.09375 L 3.734375 -4.09375 L 2.140625 -2.390625 L 3.921875 0 L 3.09375 0 Z M 1.671875 -1.890625 "/></g></g></g><g fill="#ffffff" fill-opacity="1"><g transform="translate(126.753339, 72.917475)"><g><path d="M 2.234375 0.078125 C 1.671875 0.078125 1.21875 -0.101562 0.875 -0.46875 C 0.53125 -0.832031 0.359375 -1.320312 0.359375 -1.9375 L 0.359375 -2.0625 C 0.359375 -2.46875 0.429688 -2.828125 0.578125 -3.140625 C 0.734375 -3.460938 0.953125 -3.710938 1.234375 -3.890625 C 1.515625 -4.078125 1.816406 -4.171875 2.140625 -4.171875 C 2.671875 -4.171875 3.082031 -3.992188 3.375 -3.640625 C 3.675781 -3.296875 3.828125 -2.796875 3.828125 -2.140625 L 3.828125 -1.84375 L 1.046875 -1.84375 C 1.054688 -1.4375 1.175781 -1.109375 1.40625 -0.859375 C 1.632812 -0.617188 1.921875 -0.5 2.265625 -0.5 C 2.515625 -0.5 2.722656 -0.546875 2.890625 -0.640625 C 3.066406 -0.742188 3.21875 -0.878906 3.34375 -1.046875 L 3.765625 -0.71875 C 3.429688 -0.1875 2.921875 0.078125 2.234375 0.078125 Z M 2.140625 -3.59375 C 1.859375 -3.59375 1.617188 -3.488281 1.421875 -3.28125 C 1.234375 -3.082031 1.117188 -2.796875 1.078125 -2.421875 L 3.125 -2.421875 L 3.125 -2.46875 C 3.101562 -2.832031 3.003906 -3.109375 2.828125 -3.296875 C 2.660156 -3.492188 2.429688 -3.59375 2.140625 -3.59375 Z M 2.140625 -3.59375 "/></g></g></g><g fill="#ffffff" fill-opacity="1"><g transform="translate(133.960952, 72.917475)"><g><path d="M 1.484375 -5.09375 L 1.484375 -4.09375 L 2.25 -4.09375 L 2.25 -3.546875 L 1.484375 -3.546875 L 1.484375 -1.015625 C 1.484375 -0.847656 1.515625 -0.722656 1.578125 -0.640625 C 1.648438 -0.554688 1.769531 -0.515625 1.9375 -0.515625 C 2.007812 -0.515625 2.117188 -0.53125 2.265625 -0.5625 L 2.265625 0 C 2.078125 0.0507812 1.894531 0.078125 1.71875 0.078125 C 1.40625 0.078125 1.171875 -0.015625 1.015625 -0.203125 C 0.859375 -0.390625 0.78125 -0.660156 0.78125 -1.015625 L 0.78125 -3.546875 L 0.03125 -3.546875 L 0.03125 -4.09375 L 0.78125 -4.09375 L 0.78125 -5.09375 Z M 1.484375 -5.09375 "/></g></g></g></svg>